<?xml version="1.0" encoding="UTF-8"?>
<svg id="Layer_1" xmlns="http://www.w3.org/2000/svg" viewBox="0 0 112.2 120">
  <defs>
    <style>
      .cls-1 {
        fill: #60cefd;
        opacity: .7;
      }

      .cls-2 {
        fill: #1869ff;
      }

      .cls-3 {
        fill: #008cff;
      }
    </style>
  </defs>
  <g>
    <g>
      <path class="cls-2" d="M56.1,12.32v29.53c-1.01,0-2.02-.25-2.92-.74l-20.94-11.44c-1.49-.81-2.5-2.18-2.81-3.73-.07-.35-.11-.7-.11-1.06V1.99s0-.04,0-.07c.33-1.71,1.97-2.4,3.56-1.58.02,0,.04.02.06.03l9.15,4.95,11.99,6.49c.62.33,1.32.5,2.02.5Z"/>
      <path class="cls-1" d="M42.1,5.32l-12.67,20.62c-.07-.35-.11-.7-.11-1.06V1.99s0-.04,0-.07c.33-1.71,1.97-2.4,3.56-1.58.02,0,.04.02.06.03l9.15,4.95Z"/>
    </g>
    <g>
      <path class="cls-3" d="M56.1,12.32v29.53c1.01,0,2.02-.25,2.92-.74l20.94-11.44c1.49-.81,2.5-2.18,2.81-3.73.07-.35.11-.7.11-1.06V1.99s0-.04,0-.07c-.33-1.71-1.97-2.4-3.56-1.58-.02,0-.04.02-.06.03l-9.15,4.95-11.99,6.49c-.62.33-1.32.5-2.02.5Z"/>
      <path class="cls-1" d="M70.11,5.32l12.67,20.62c.07-.35.11-.7.11-1.06V1.99s0-.04,0-.07c-.33-1.71-1.97-2.4-3.56-1.58-.02,0-.04.02-.06.03l-9.15,4.95Z"/>
    </g>
  </g>
  <g>
    <g>
      <path class="cls-2" d="M56.1,58.14v61.86c-2.12,0-4.23-.52-6.12-1.55L6.12,94.48c-3.11-1.69-5.24-4.56-5.89-7.8-.15-.74-.23-1.47-.23-2.21v-47.96s0-.08.02-.14c.69-3.58,4.12-5.02,7.47-3.31.04.02.08.04.13.06l19.16,10.37,25.11,13.6c1.3.7,2.75,1.06,4.23,1.06Z"/>
      <path class="cls-1" d="M26.77,43.49L.23,86.67c-.15-.74-.23-1.47-.23-2.21v-47.96s0-.08.02-.14c.69-3.58,4.12-5.02,7.47-3.31.04.02.08.04.13.06l19.16,10.37Z"/>
    </g>
    <g>
      <path class="cls-3" d="M56.1,58.14v61.86c2.12,0,4.23-.52,6.12-1.55l43.86-23.97c3.11-1.69,5.24-4.56,5.89-7.8.15-.74.23-1.47.23-2.21v-47.96s0-.08-.02-.14c-.69-3.58-4.12-5.02-7.47-3.31-.04.02-.08.04-.13.06l-19.16,10.37-25.11,13.6c-1.3.7-2.75,1.06-4.23,1.06Z"/>
      <path class="cls-1" d="M85.44,43.49l26.54,43.18c.15-.74.23-1.47.23-2.21v-47.96s0-.08-.02-.14c-.69-3.58-4.12-5.02-7.47-3.31-.04.02-.08.04-.13.06l-19.16,10.37Z"/>
    </g>
  </g>
</svg>